<?xml version="1.0" standalone="no"?>
<!DOCTYPE svg PUBLIC "-//W3C//DTD SVG 20010904//EN"
 "http://www.w3.org/TR/2001/REC-SVG-20010904/DTD/svg10.dtd">
<svg version="1.0" xmlns="http://www.w3.org/2000/svg"
 width="700.000000pt" height="700.000000pt" viewBox="0 0 700.000000 700.000000"
 preserveAspectRatio="xMidYMid meet">
<metadata>
Created by potrace 1.11, written by Peter Selinger 2001-2013
</metadata>
<g transform="translate(0.000000,700.000000) scale(0.100000,-0.100000)"
fill="#000000" stroke="none">
<path d="M1457 5924 c-1 -1 -44 -4 -95 -8 -260 -18 -397 -83 -493 -234 -35
-55 -74 -174 -84 -252 -3 -30 -9 -68 -11 -85 -3 -16 -6 -261 -6 -544 -2 -549
-6 -626 -45 -746 -25 -81 -73 -162 -120 -206 -43 -39 -146 -95 -192 -104 -13
-2 -30 -6 -39 -9 -31 -9 -102 -17 -190 -21 -93 -5 -116 -15 -156 -69 -18 -24
-21 -42 -21 -139 0 -96 4 -118 23 -154 30 -58 58 -73 139 -78 201 -13 273 -28
365 -77 112 -60 192 -187 215 -343 2 -16 7 -41 10 -55 3 -14 7 -263 8 -555 2
-291 6 -565 9 -608 18 -232 95 -399 217 -470 55 -32 180 -73 250 -82 30 -4 58
-9 62 -12 5 -3 125 -7 266 -9 250 -3 259 -3 302 19 24 12 51 36 61 52 38 66
35 227 -5 287 -39 57 -71 66 -272 71 -250 6 -322 32 -367 135 -31 69 -31 72
-35 397 -10 928 -7 867 -44 984 -59 187 -223 365 -416 451 -29 13 -53 26 -53
30 0 3 18 14 40 24 77 34 192 120 265 199 103 110 169 244 191 381 3 21 7 48
10 59 2 12 4 253 4 537 1 556 4 599 56 702 21 42 29 48 87 67 93 31 98 32 265
36 178 4 202 8 230 38 40 42 52 89 49 189 -3 103 -18 143 -70 182 -25 19 -42
20 -218 21 -105 0 -191 0 -192 -1z"/>
<path d="M5181 5919 c-68 -14 -100 -54 -119 -144 -22 -109 6 -220 65 -256 32
-20 50 -22 197 -24 302 -4 381 -48 415 -227 5 -30 10 -274 11 -563 1 -591 1
-592 36 -715 54 -188 218 -371 427 -475 l57 -28 -83 -41 c-198 -98 -333 -245
-395 -431 -19 -55 -26 -88 -37 -177 -2 -18 -5 -270 -5 -559 -1 -559 -5 -611
-51 -685 -45 -74 -146 -103 -376 -108 -87 -2 -166 -5 -176 -8 -30 -7 -75 -56
-88 -96 -16 -48 -16 -166 0 -215 19 -56 64 -95 118 -103 50 -7 491 1 538 10
17 4 55 11 85 17 169 33 270 92 333 197 35 57 73 165 83 232 3 19 8 42 11 50
3 8 7 260 9 560 2 589 6 675 34 786 60 235 204 336 505 351 117 6 151 17 184
59 32 41 43 100 39 204 -6 149 -33 174 -203 184 -290 18 -434 106 -504 309
-11 31 -22 70 -24 86 -3 16 -7 34 -10 38 -13 21 -20 235 -22 718 -2 423 -5
534 -18 595 -58 285 -172 387 -492 444 -92 17 -484 27 -544 15z"/>
<path d="M3115 5244 c-69 -36 -105 -91 -105 -163 0 -58 14 -85 72 -147 l52
-55 -530 -529 c-291 -292 -531 -530 -534 -530 -3 0 -29 23 -58 50 -30 27 -69
54 -89 61 -77 25 -169 -11 -212 -82 -22 -37 -26 -115 -7 -159 9 -22 223 -242
588 -607 563 -561 574 -572 620 -578 91 -13 165 23 199 99 34 75 21 139 -44
211 -20 22 -37 42 -37 45 0 3 82 88 183 188 l183 183 740 -739 c406 -407 754
-747 772 -756 40 -20 96 -23 145 -7 48 16 162 137 170 181 11 52 8 89 -9 123
-9 18 -350 366 -757 774 l-742 743 187 187 186 186 52 -46 c54 -49 109 -66
172 -53 71 14 137 98 138 175 0 19 -9 53 -20 75 -28 58 -1122 1150 -1173 1171
-47 19 -104 19 -142 -1z"/>
</g>
</svg>
