<svg version="1" xmlns="http://www.w3.org/2000/svg" width="1066.667" height="1066.667" viewBox="0 0 800.000000 800.000000"><path d="M374 .6C313.3 6 263.1 20.1 215 45.3 113.2 98.6 38.1 194.4 11.5 305c-15.4 63.8-15.4 126.2 0 190C46.6 641 164.8 757.4 311 789.9c33.9 7.6 52.3 9.5 89 9.5 29.7 0 43.8-1 67-5 51.6-8.9 100.6-27.5 143.9-54.6 89.5-56 153.4-144.1 177.6-244.8 3.9-15.9 6.4-29.7 8.7-47.5 1.9-14.4 2.2-21.7 2.2-47.5s-.3-33.1-2.2-47.5c-2.3-17.8-4.8-31.6-8.7-47.5C753.9 161.2 638.8 46.1 495 11.5 462.9 3.8 439.4.9 405 .5c-14.6-.1-28.5-.1-31 .1zm-137.3 158c5 3.7 6.7 7.9 7.1 17.6.5 10-1.1 15.8-5.4 19.9-2.4 2.2-3.4 2.4-19.7 3-18.2.8-19.7.9-29.5 4.1-6.9 2.2-8.2 3.8-11.8 14.8-1.6 4.9-1.9 11.3-2.4 63.5-.7 65.2-.4 62.7-8.5 79.2-7.1 14.5-23.1 29.8-38.3 36.9-2.3 1-4.2 2.2-4.2 2.5 0 .3 2.3 1.6 5.1 2.9 15.5 7 31 21.5 37.8 35.4 7.5 15.5 7.4 14.1 8.1 80.1.7 66.1.7 65.9 7.8 73.4 5.6 5.9 11.1 7.2 33.9 7.9 17.3.6 19.4.9 22 2.8 5 3.8 6.7 7.9 7.1 17.9.3 7.9.1 9.5-2 13.4-4.2 8.2-5.3 8.6-26.6 8.9-38.4.7-62.6-4.1-73.6-14.6-4.7-4.5-8-9.6-10.7-16.5-5-12.5-5.1-14.5-5.9-78.7-.8-69-1.1-72.6-8-86.7-8-16.3-20.2-22.5-47.3-24.2-13.3-.8-15.6-1.9-19.1-8.7-1.8-3.3-2.1-5.7-2.1-15.1 0-9.7.3-11.5 2.1-13.9 4.2-5.7 6.2-6.5 19.5-7.4 14.3-1 21.9-2.8 30.1-7.2 14.1-7.5 21.4-22 23.8-47.3.5-6.1 1-33.1 1-60 .1-37.1.4-50.9 1.4-56.7 5.5-30.5 19.5-43.9 50.1-47.7 12.6-1.6 17.6-1.8 37.7-1.7 16.3.1 17.9.3 20.5 2.2zm384.8-.1c30.7 4.6 43.9 15.7 49.7 41.8 1.9 8.5 2.1 14 2.8 69.7.8 64.1.9 65.7 5.9 79 4.5 11.8 14.3 20.9 26.8 24.9 4 1.3 12.7 2.7 21 3.5 18.2 1.7 21 3.5 22.6 13.9.9 5.7-1 19.4-3.1 23-3.4 5.9-6.8 7.3-19.4 8-25.7 1.5-39.1 8.3-46.7 23.8-6.2 12.6-6.3 14.3-7.1 82.4-.7 57.2-.9 62.7-2.8 71.2-4.3 19.5-12.6 30.6-26.7 36.1-13.9 5.3-22.2 6.4-51.5 6.9-31 .5-31.7.3-36-8.2-3.3-6.7-3.5-18.7-.3-25.7 3.4-7.5 5.5-8.1 27.8-8.9 21.2-.7 28.4-2.4 33.7-8.2 6-6.3 6.1-7.5 6.8-73.2.6-58.4.7-60.2 2.9-67.5 6.2-20.7 21.4-37.8 42.2-47.4 5.8-2.7 6.8-3.5 5.2-4-1.2-.4-5.7-2.8-10.1-5.5-19.6-11.7-31.4-26.4-37.4-46.3-2.1-7.1-2.2-9.3-2.8-66.8-.6-55-.8-59.9-2.5-64.9-1.1-3-3.4-6.9-5.1-8.6-5.5-5.5-10.6-6.7-31.9-7.4-22.3-.8-24.4-1.5-27.8-8.9-1.6-3.6-2.1-6.6-2.1-12.7.1-10.7 3.4-18.3 8.9-20.6 3.7-1.5 45.9-1 57 .6zm-241 66.4c5.6 2.7 114.8 112.2 117 117.3.8 2.1 1.5 5.1 1.5 6.8 0 3.6-2.3 9.6-4.8 12.3-4.4 4.9-13.5 7-19.6 4.7-1.4-.5-4.6-2.8-7.2-5.2l-4.5-4.2-18.7 18.7-18.7 18.7 74.2 74.3c52 52 74.7 75.3 75.8 77.9 2 4.9 1.9 9.4-.4 14.3-2.2 4.7-11.4 13.9-15.4 15.4-4.1 1.6-11.3 1.3-15-.5-1.8-.9-36.5-34.9-77.2-75.5l-74-73.9-18.5 18.5-18.4 18.5 3.6 3.7c4.2 4.3 6.8 9.8 6.8 14.3 0 3.6-2.3 9.6-4.8 12.3-4.4 4.9-13.5 7-19.9 4.6-3.6-1.3-115.8-113.3-117.8-117.5-4.9-10.4 2.5-23.9 13.8-25.1 6.4-.7 11.4 1.3 17.5 7l5.3 5.1 53.1-53.2 53.2-53.1-5.2-5.5c-5.8-6.2-7.2-8.9-7.2-14.7 0-13.2 13.4-21.7 25.5-16z"/></svg>